# xmcd CD database file
#
# Track frame offsets:
#	150
#	15425
#	31042
#	45166
#	57807
#	70395
#	83378
#	101905
#	116446
#	131790
#	146363
#	163767
#	177525
#	189163
#	205653
#	220298
#	234109
#	245566
#	259128
#	274182
#	285947
#	298193
#	312626
#	325825
#	338626
#
# Disc length: 4683 seconds
#
# Revision: 1
# Processed by: cddbd v1.4PL0 Copyright (c) Steve Scherf et al.
# Submitted via: CDex 1.50beta10
#
DISCID=63124919
DTITLE=Banda Machos - Historia musical
DYEAR=2001
DGENRE=Country
TTITLE0=a las pruebas me remito
TTITLE1=la pachanga ya empezo
TTITLE2=dentro de ti
TTITLE3=no me toques
TTITLE4=me llamo raquel
TTITLE5=ya no me dejo
TTITLE6=a capa y espada
TTITLE7=historia sin fin
TTITLE8=tres minutos
TTITLE9=te voy a dar chiquita
TTITLE10=vivir sin ellas
TTITLE11=toda mia
TTITLE12=mi chica ideal
TTITLE13=te lo debo a ti
TTITLE14=morenaza
TTITLE15=so solicita un cariño
TTITLE16=chica bonita
TTITLE17=las nachas
TTITLE18=las habas
TTITLE19=y la quiere paco
TTITLE20=el gato y el raton
TTITLE21=la culebra
TTITLE22=casimira
TTITLE23=leña de pirul
TTITLE24=un indio quiere llorar
EXTD=YEAR: 2001
EXTT0=
EXTT1=
EXTT2=
EXTT3=
EXTT4=
EXTT5=
EXTT6=
EXTT7=
EXTT8=
EXTT9=
EXTT10=
EXTT11=
EXTT12=
EXTT13=
EXTT14=
EXTT15=
EXTT16=
EXTT17=
EXTT18=
EXTT19=
EXTT20=
EXTT21=
EXTT22=
EXTT23=
EXTT24=
PLAYORDER=
